<svg xmlns="http://www.w3.org/2000/svg" viewBox="0 0 1200 750">
<defs><linearGradient id="b" x2="1" y2="1"><stop stop-color="#172315"/><stop offset=".55" stop-color="#344627"/><stop offset="1" stop-color="#11160d"/></linearGradient><radialGradient id="sun"><stop stop-color="#ffe5a0"/><stop offset="1" stop-color="#d8a83a" stop-opacity="0"/></radialGradient></defs>
<rect width="1200" height="750" fill="url(#b)"/><circle cx="770" cy="220" r="290" fill="url(#sun)" opacity=".8"/>
<g fill="#10150c"><path d="M-50 615c250-180 500-230 760-210 240 18 330 120 560 60v300H-50z"/><path d="M210 0c75 170 83 390-22 750H0V0z"/><path d="M1100 0c-95 210-120 430-58 750h158V0z"/></g>
<path d="M140 490c300-65 548-71 850 20" stroke="#614a26" stroke-width="55" fill="none" stroke-linecap="round"/>
<g transform="translate(580 410)" fill="#78b748" stroke="#d1e79c" stroke-width="3"><ellipse rx="84" ry="30"/><circle cx="72" cy="-20" r="34"/><circle cx="84" cy="-30" r="8" fill="#10150c"/><path d="M-80 0c-120-30-150 50-78 62 72 12 120-28 130-70" fill="none" stroke="#78b748" stroke-width="18"/><path d="m-25 20-42 47M28 20l48 38" stroke-width="14"/></g>
<g fill="#8fa874"><ellipse cx="330" cy="170" rx="120" ry="44" transform="rotate(-22 330 170)"/><ellipse cx="960" cy="330" rx="120" ry="42" transform="rotate(28 960 330)"/><ellipse cx="810" cy="90" rx="95" ry="34" transform="rotate(-8 810 90)"/></g>
</svg>
